<svg width="24" height="24" viewBox="0 0 24 24" fill="none" xmlns="http://www.w3.org/2000/svg">
  <!-- Claude: a warm, rounded bean creature -->
  <path d="M12 2.5c-4.4 0-7.5 3.1-7.5 7.6 0 3.1 1.2 5.3 3 6.9-.5 1.2-1.3 2.2-2 2.8-.4.3-.2.9.3.9 1.9-.1 3.6-.7 4.9-1.6.4.05.85.08 1.3.08 4.4 0 7.5-3.1 7.5-7.6S16.4 2.5 12 2.5z"
        fill="#d97757"/>
  <!-- cheeks -->
  <circle cx="8.4" cy="12.4" r="1.05" fill="#f0a488" opacity="0.85"/>
  <circle cx="15.6" cy="12.4" r="1.05" fill="#f0a488" opacity="0.85"/>
  <!-- eyes -->
  <circle cx="9.4" cy="10.2" r="1.25" fill="#3a1f18"/>
  <circle cx="14.6" cy="10.2" r="1.25" fill="#3a1f18"/>
  <circle cx="9.8" cy="9.7" r="0.4" fill="#fff"/>
  <circle cx="15.0" cy="9.7" r="0.4" fill="#fff"/>
  <!-- little smile -->
  <path d="M10.4 13.2c.5.5 2.7.5 3.2 0" stroke="#3a1f18" stroke-width="0.9" stroke-linecap="round" fill="none"/>
  <!-- spark antenna -->
  <path d="M12 2.6l.55 1.5 1.5.55-1.5.55L12 7.25l-.55-1.5-1.5-.55 1.5-.55z" fill="#ffcf9e"/>
</svg>
