<svg class="rich-terminal" viewBox="0 0 1458 879.5999999999999" xmlns="http://www.w3.org/2000/svg">
    <!-- Generated with Rich https://www.textualize.io -->
    <style>

    @font-face {
        font-family: "Fira Code";
        src: local("FiraCode-Regular"),
                url("https://cdnjs.cloudflare.com/ajax/libs/firacode/6.2.0/woff2/FiraCode-Regular.woff2") format("woff2"),
                url("https://cdnjs.cloudflare.com/ajax/libs/firacode/6.2.0/woff/FiraCode-Regular.woff") format("woff");
        font-style: normal;
        font-weight: 400;
    }
    @font-face {
        font-family: "Fira Code";
        src: local("FiraCode-Bold"),
                url("https://cdnjs.cloudflare.com/ajax/libs/firacode/6.2.0/woff2/FiraCode-Bold.woff2") format("woff2"),
                url("https://cdnjs.cloudflare.com/ajax/libs/firacode/6.2.0/woff/FiraCode-Bold.woff") format("woff");
        font-style: bold;
        font-weight: 700;
    }

    .terminal-2842488015-matrix {
        font-family: Fira Code, monospace;
        font-size: 20px;
        line-height: 24.4px;
        font-variant-east-asian: full-width;
    }

    .terminal-2842488015-title {
        font-size: 18px;
        font-weight: bold;
        font-family: arial;
    }

    .terminal-2842488015-r1 { fill: #c5c8c6 }
.terminal-2842488015-r2 { fill: #d87757;font-weight: bold }
.terminal-2842488015-r3 { fill: #16414a }
.terminal-2842488015-r4 { fill: #e6e6e6;font-weight: bold }
.terminal-2842488015-r5 { fill: #9fa1a4;font-weight: bold }
.terminal-2842488015-r6 { fill: #e6e6e6 }
.terminal-2842488015-r7 { fill: #d97757;font-weight: bold }
.terminal-2842488015-r8 { fill: #9e9fa2 }
.terminal-2842488015-r9 { fill: #0d1017;font-weight: bold }
.terminal-2842488015-r10 { fill: #3fb950;font-weight: bold }
.terminal-2842488015-r11 { fill: #281f22;font-weight: bold }
.terminal-2842488015-r12 { fill: #3fb950 }
.terminal-2842488015-r13 { fill: #a1a2a5 }
.terminal-2842488015-r14 { fill: #a6a2a2 }
.terminal-2842488015-r15 { fill: #f85149 }
.terminal-2842488015-r16 { fill: #ad403d }
.terminal-2842488015-r17 { fill: #9c9d9f }
.terminal-2842488015-r18 { fill: #d97757 }
.terminal-2842488015-r19 { fill: #2bb6c4;font-weight: bold }
.terminal-2842488015-r20 { fill: #2bb6c4 }
.terminal-2842488015-r21 { fill: #9aa4b2 }
.terminal-2842488015-r22 { fill: #40444c }
    </style>

    <defs>
    <clipPath id="terminal-2842488015-clip-terminal">
      <rect x="0" y="0" width="1438.6" height="828.5999999999999" />
    </clipPath>
    <clipPath id="terminal-2842488015-line-0">
    <rect x="0" y="1.5" width="1439.6" height="24.65"/>
            </clipPath>
<clipPath id="terminal-2842488015-line-1">
    <rect x="0" y="25.9" width="1439.6" height="24.65"/>
            </clipPath>
<clipPath id="terminal-2842488015-line-2">
    <rect x="0" y="50.3" width="1439.6" height="24.65"/>
            </clipPath>
<clipPath id="terminal-2842488015-line-3">
    <rect x="0" y="74.7" width="1439.6" height="24.65"/>
            </clipPath>
<clipPath id="terminal-2842488015-line-4">
    <rect x="0" y="99.1" width="1439.6" height="24.65"/>
            </clipPath>
<clipPath id="terminal-2842488015-line-5">
    <rect x="0" y="123.5" width="1439.6" height="24.65"/>
            </clipPath>
<clipPath id="terminal-2842488015-line-6">
    <rect x="0" y="147.9" width="1439.6" height="24.65"/>
            </clipPath>
<clipPath id="terminal-2842488015-line-7">
    <rect x="0" y="172.3" width="1439.6" height="24.65"/>
            </clipPath>
<clipPath id="terminal-2842488015-line-8">
    <rect x="0" y="196.7" width="1439.6" height="24.65"/>
            </clipPath>
<clipPath id="terminal-2842488015-line-9">
    <rect x="0" y="221.1" width="1439.6" height="24.65"/>
            </clipPath>
<clipPath id="terminal-2842488015-line-10">
    <rect x="0" y="245.5" width="1439.6" height="24.65"/>
            </clipPath>
<clipPath id="terminal-2842488015-line-11">
    <rect x="0" y="269.9" width="1439.6" height="24.65"/>
            </clipPath>
<clipPath id="terminal-2842488015-line-12">
    <rect x="0" y="294.3" width="1439.6" height="24.65"/>
            </clipPath>
<clipPath id="terminal-2842488015-line-13">
    <rect x="0" y="318.7" width="1439.6" height="24.65"/>
            </clipPath>
<clipPath id="terminal-2842488015-line-14">
    <rect x="0" y="343.1" width="1439.6" height="24.65"/>
            </clipPath>
<clipPath id="terminal-2842488015-line-15">
    <rect x="0" y="367.5" width="1439.6" height="24.65"/>
            </clipPath>
<clipPath id="terminal-2842488015-line-16">
    <rect x="0" y="391.9" width="1439.6" height="24.65"/>
            </clipPath>
<clipPath id="terminal-2842488015-line-17">
    <rect x="0" y="416.3" width="1439.6" height="24.65"/>
            </clipPath>
<clipPath id="terminal-2842488015-line-18">
    <rect x="0" y="440.7" width="1439.6" height="24.65"/>
            </clipPath>
<clipPath id="terminal-2842488015-line-19">
    <rect x="0" y="465.1" width="1439.6" height="24.65"/>
            </clipPath>
<clipPath id="terminal-2842488015-line-20">
    <rect x="0" y="489.5" width="1439.6" height="24.65"/>
            </clipPath>
<clipPath id="terminal-2842488015-line-21">
    <rect x="0" y="513.9" width="1439.6" height="24.65"/>
            </clipPath>
<clipPath id="terminal-2842488015-line-22">
    <rect x="0" y="538.3" width="1439.6" height="24.65"/>
            </clipPath>
<clipPath id="terminal-2842488015-line-23">
    <rect x="0" y="562.7" width="1439.6" height="24.65"/>
            </clipPath>
<clipPath id="terminal-2842488015-line-24">
    <rect x="0" y="587.1" width="1439.6" height="24.65"/>
            </clipPath>
<clipPath id="terminal-2842488015-line-25">
    <rect x="0" y="611.5" width="1439.6" height="24.65"/>
            </clipPath>
<clipPath id="terminal-2842488015-line-26">
    <rect x="0" y="635.9" width="1439.6" height="24.65"/>
            </clipPath>
<clipPath id="terminal-2842488015-line-27">
    <rect x="0" y="660.3" width="1439.6" height="24.65"/>
            </clipPath>
<clipPath id="terminal-2842488015-line-28">
    <rect x="0" y="684.7" width="1439.6" height="24.65"/>
            </clipPath>
<clipPath id="terminal-2842488015-line-29">
    <rect x="0" y="709.1" width="1439.6" height="24.65"/>
            </clipPath>
<clipPath id="terminal-2842488015-line-30">
    <rect x="0" y="733.5" width="1439.6" height="24.65"/>
            </clipPath>
<clipPath id="terminal-2842488015-line-31">
    <rect x="0" y="757.9" width="1439.6" height="24.65"/>
            </clipPath>
<clipPath id="terminal-2842488015-line-32">
    <rect x="0" y="782.3" width="1439.6" height="24.65"/>
            </clipPath>
    </defs>

    <rect fill="#292929" stroke="rgba(255,255,255,0.35)" stroke-width="1" x="1" y="1" width="1456" height="877.6" rx="8"/><text class="terminal-2842488015-title" fill="#c5c8c6" text-anchor="middle" x="728" y="27">hopmux</text>
            <g transform="translate(26,22)">
            <circle cx="0" cy="0" r="7" fill="#ff5f57"/>
            <circle cx="22" cy="0" r="7" fill="#febc2e"/>
            <circle cx="44" cy="0" r="7" fill="#28c840"/>
            </g>
        
    <g transform="translate(9, 41)" clip-path="url(#terminal-2842488015-clip-terminal)">
    <rect fill="#171c26" x="0" y="1.5" width="12.2" height="24.65" shape-rendering="crispEdges"/><rect fill="#171c26" x="12.2" y="1.5" width="109.8" height="24.65" shape-rendering="crispEdges"/><rect fill="#171c26" x="122" y="1.5" width="12.2" height="24.65" shape-rendering="crispEdges"/><rect fill="#12161f" x="134.2" y="1.5" width="219.6" height="24.65" shape-rendering="crispEdges"/><rect fill="#12161f" x="353.8" y="1.5" width="12.2" height="24.65" shape-rendering="crispEdges"/><rect fill="#171c26" x="366" y="1.5" width="12.2" height="24.65" shape-rendering="crispEdges"/><rect fill="#171c26" x="378.2" y="1.5" width="183" height="24.65" shape-rendering="crispEdges"/><rect fill="#171c26" x="561.2" y="1.5" width="24.4" height="24.65" shape-rendering="crispEdges"/><rect fill="#171c26" x="585.6" y="1.5" width="48.8" height="24.65" shape-rendering="crispEdges"/><rect fill="#171c26" x="634.4" y="1.5" width="793" height="24.65" shape-rendering="crispEdges"/><rect fill="#171c26" x="1427.4" y="1.5" width="12.2" height="24.65" shape-rendering="crispEdges"/><rect fill="#1c2028" x="0" y="25.9" width="12.2" height="24.65" shape-rendering="crispEdges"/><rect fill="#1c2028" x="12.2" y="25.9" width="24.4" height="24.65" shape-rendering="crispEdges"/><rect fill="#1c2028" x="36.6" y="25.9" width="183" height="24.65" shape-rendering="crispEdges"/><rect fill="#1c2028" x="219.6" y="25.9" width="122" height="24.65" shape-rendering="crispEdges"/><rect fill="#1c2028" x="341.6" y="25.9" width="12.2" height="24.65" shape-rendering="crispEdges"/><rect fill="#12161f" x="353.8" y="25.9" width="12.2" height="24.65" shape-rendering="crispEdges"/><rect fill="#0d1017" x="366" y="25.9" width="12.2" height="24.65" shape-rendering="crispEdges"/><rect fill="#0d1017" x="378.2" y="25.9" width="768.6" height="24.65" shape-rendering="crispEdges"/><rect fill="#0d1017" x="1146.8" y="25.9" width="280.6" height="24.65" shape-rendering="crispEdges"/><rect fill="#0d1017" x="1427.4" y="25.9" width="12.2" height="24.65" shape-rendering="crispEdges"/><rect fill="#5d3e38" x="0" y="50.3" width="12.2" height="24.65" shape-rendering="crispEdges"/><rect fill="#5d3e38" x="12.2" y="50.3" width="24.4" height="24.65" shape-rendering="crispEdges"/><rect fill="#5d3e38" x="36.6" y="50.3" width="183" height="24.65" shape-rendering="crispEdges"/><rect fill="#5d3e38" x="219.6" y="50.3" width="36.6" height="24.65" shape-rendering="crispEdges"/><rect fill="#5d3e38" x="256.2" y="50.3" width="85.4" height="24.65" shape-rendering="crispEdges"/><rect fill="#5d3e38" x="341.6" y="50.3" width="12.2" height="24.65" shape-rendering="crispEdges"/><rect fill="#12161f" x="353.8" y="50.3" width="12.2" height="24.65" shape-rendering="crispEdges"/><rect fill="#0d1017" x="366" y="50.3" width="12.2" height="24.65" shape-rendering="crispEdges"/><rect fill="#2b1f20" x="378.2" y="50.3" width="85.4" height="24.65" shape-rendering="crispEdges"/><rect fill="#2b1f20" x="463.6" y="50.3" width="97.6" height="24.65" shape-rendering="crispEdges"/><rect fill="#2b1f20" x="561.2" y="50.3" width="866.2" height="24.65" shape-rendering="crispEdges"/><rect fill="#0d1017" x="1427.4" y="50.3" width="12.2" height="24.65" shape-rendering="crispEdges"/><rect fill="#1c2028" x="0" y="74.7" width="12.2" height="24.65" shape-rendering="crispEdges"/><rect fill="#1c2028" x="12.2" y="74.7" width="24.4" height="24.65" shape-rendering="crispEdges"/><rect fill="#1c2028" x="36.6" y="74.7" width="73.2" height="24.65" shape-rendering="crispEdges"/><rect fill="#1c2028" x="109.8" y="74.7" width="36.6" height="24.65" shape-rendering="crispEdges"/><rect fill="#1c2028" x="146.4" y="74.7" width="195.2" height="24.65" shape-rendering="crispEdges"/><rect fill="#1c2028" x="341.6" y="74.7" width="12.2" height="24.65" shape-rendering="crispEdges"/><rect fill="#12161f" x="353.8" y="74.7" width="12.2" height="24.65" shape-rendering="crispEdges"/><rect fill="#0d1017" x="366" y="74.7" width="12.2" height="24.65" shape-rendering="crispEdges"/><rect fill="#2b1f20" x="378.2" y="74.7" width="183" height="24.65" shape-rendering="crispEdges"/><rect fill="#2b1f20" x="561.2" y="74.7" width="97.6" height="24.65" shape-rendering="crispEdges"/><rect fill="#2b1f20" x="658.8" y="74.7" width="768.6" height="24.65" shape-rendering="crispEdges"/><rect fill="#0d1017" x="1427.4" y="74.7" width="12.2" height="24.65" shape-rendering="crispEdges"/><rect fill="#1c2028" x="0" y="99.1" width="12.2" height="24.65" shape-rendering="crispEdges"/><rect fill="#1c2028" x="12.2" y="99.1" width="24.4" height="24.65" shape-rendering="crispEdges"/><rect fill="#1c2028" x="36.6" y="99.1" width="61" height="24.65" shape-rendering="crispEdges"/><rect fill="#1c2028" x="97.6" y="99.1" width="36.6" height="24.65" shape-rendering="crispEdges"/><rect fill="#1c2028" x="134.2" y="99.1" width="207.4" height="24.65" shape-rendering="crispEdges"/><rect fill="#1c2028" x="341.6" y="99.1" width="12.2" height="24.65" shape-rendering="crispEdges"/><rect fill="#12161f" x="353.8" y="99.1" width="12.2" height="24.65" shape-rendering="crispEdges"/><rect fill="#0d1017" x="366" y="99.1" width="12.2" height="24.65" shape-rendering="crispEdges"/><rect fill="#0d1017" x="378.2" y="99.1" width="85.4" height="24.65" shape-rendering="crispEdges"/><rect fill="#0d1017" x="463.6" y="99.1" width="195.2" height="24.65" shape-rendering="crispEdges"/><rect fill="#0d1017" x="658.8" y="99.1" width="768.6" height="24.65" shape-rendering="crispEdges"/><rect fill="#0d1017" x="1427.4" y="99.1" width="12.2" height="24.65" shape-rendering="crispEdges"/><rect fill="#1c2028" x="0" y="123.5" width="12.2" height="24.65" shape-rendering="crispEdges"/><rect fill="#1c2028" x="12.2" y="123.5" width="24.4" height="24.65" shape-rendering="crispEdges"/><rect fill="#1c2028" x="36.6" y="123.5" width="97.6" height="24.65" shape-rendering="crispEdges"/><rect fill="#1c2028" x="134.2" y="123.5" width="207.4" height="24.65" shape-rendering="crispEdges"/><rect fill="#1c2028" x="341.6" y="123.5" width="12.2" height="24.65" shape-rendering="crispEdges"/><rect fill="#12161f" x="353.8" y="123.5" width="12.2" height="24.65" shape-rendering="crispEdges"/><rect fill="#0d1017" x="366" y="123.5" width="12.2" height="24.65" shape-rendering="crispEdges"/><rect fill="#0d1017" x="378.2" y="123.5" width="183" height="24.65" shape-rendering="crispEdges"/><rect fill="#0d1017" x="561.2" y="123.5" width="97.6" height="24.65" shape-rendering="crispEdges"/><rect fill="#0d1017" x="658.8" y="123.5" width="768.6" height="24.65" shape-rendering="crispEdges"/><rect fill="#0d1017" x="1427.4" y="123.5" width="12.2" height="24.65" shape-rendering="crispEdges"/><rect fill="#1c2028" x="0" y="147.9" width="12.2" height="24.65" shape-rendering="crispEdges"/><rect fill="#1c2028" x="12.2" y="147.9" width="24.4" height="24.65" shape-rendering="crispEdges"/><rect fill="#1c2028" x="36.6" y="147.9" width="97.6" height="24.65" shape-rendering="crispEdges"/><rect fill="#1c2028" x="134.2" y="147.9" width="207.4" height="24.65" shape-rendering="crispEdges"/><rect fill="#1c2028" x="341.6" y="147.9" width="12.2" height="24.65" shape-rendering="crispEdges"/><rect fill="#12161f" x="353.8" y="147.9" width="12.2" height="24.65" shape-rendering="crispEdges"/><rect fill="#0d1017" x="366" y="147.9" width="12.2" height="24.65" shape-rendering="crispEdges"/><rect fill="#0d1017" x="378.2" y="147.9" width="85.4" height="24.65" shape-rendering="crispEdges"/><rect fill="#0d1017" x="463.6" y="147.9" width="73.2" height="24.65" shape-rendering="crispEdges"/><rect fill="#0d1017" x="536.8" y="147.9" width="890.6" height="24.65" shape-rendering="crispEdges"/><rect fill="#0d1017" x="1427.4" y="147.9" width="12.2" height="24.65" shape-rendering="crispEdges"/><rect fill="#1c2028" x="0" y="172.3" width="353.8" height="24.65" shape-rendering="crispEdges"/><rect fill="#12161f" x="353.8" y="172.3" width="12.2" height="24.65" shape-rendering="crispEdges"/><rect fill="#0d1017" x="366" y="172.3" width="12.2" height="24.65" shape-rendering="crispEdges"/><rect fill="#0d1017" x="378.2" y="172.3" width="183" height="24.65" shape-rendering="crispEdges"/><rect fill="#0d1017" x="561.2" y="172.3" width="97.6" height="24.65" shape-rendering="crispEdges"/><rect fill="#0d1017" x="658.8" y="172.3" width="768.6" height="24.65" shape-rendering="crispEdges"/><rect fill="#0d1017" x="1427.4" y="172.3" width="12.2" height="24.65" shape-rendering="crispEdges"/><rect fill="#1c2028" x="0" y="196.7" width="353.8" height="24.65" shape-rendering="crispEdges"/><rect fill="#12161f" x="353.8" y="196.7" width="12.2" height="24.65" shape-rendering="crispEdges"/><rect fill="#0d1017" x="366" y="196.7" width="12.2" height="24.65" shape-rendering="crispEdges"/><rect fill="#0d1017" x="378.2" y="196.7" width="109.8" height="24.65" shape-rendering="crispEdges"/><rect fill="#0d1017" x="488" y="196.7" width="512.4" height="24.65" shape-rendering="crispEdges"/><rect fill="#0d1017" x="1000.4" y="196.7" width="427" height="24.65" shape-rendering="crispEdges"/><rect fill="#0d1017" x="1427.4" y="196.7" width="12.2" height="24.65" shape-rendering="crispEdges"/><rect fill="#1c2028" x="0" y="221.1" width="353.8" height="24.65" shape-rendering="crispEdges"/><rect fill="#12161f" x="353.8" y="221.1" width="12.2" height="24.65" shape-rendering="crispEdges"/><rect fill="#0d1017" x="366" y="221.1" width="12.2" height="24.65" shape-rendering="crispEdges"/><rect fill="#0d1017" x="378.2" y="221.1" width="378.2" height="24.65" shape-rendering="crispEdges"/><rect fill="#0d1017" x="756.4" y="221.1" width="85.4" height="24.65" shape-rendering="crispEdges"/><rect fill="#0d1017" x="841.8" y="221.1" width="585.6" height="24.65" shape-rendering="crispEdges"/><rect fill="#0d1017" x="1427.4" y="221.1" width="12.2" height="24.65" shape-rendering="crispEdges"/><rect fill="#1c2028" x="0" y="245.5" width="353.8" height="24.65" shape-rendering="crispEdges"/><rect fill="#12161f" x="353.8" y="245.5" width="12.2" height="24.65" shape-rendering="crispEdges"/><rect fill="#0d1017" x="366" y="245.5" width="12.2" height="24.65" shape-rendering="crispEdges"/><rect fill="#0d1017" x="378.2" y="245.5" width="97.6" height="24.65" shape-rendering="crispEdges"/><rect fill="#0d1017" x="475.8" y="245.5" width="366" height="24.65" shape-rendering="crispEdges"/><rect fill="#0d1017" x="841.8" y="245.5" width="585.6" height="24.65" shape-rendering="crispEdges"/><rect fill="#0d1017" x="1427.4" y="245.5" width="12.2" height="24.65" shape-rendering="crispEdges"/><rect fill="#1c2028" x="0" y="269.9" width="353.8" height="24.65" shape-rendering="crispEdges"/><rect fill="#12161f" x="353.8" y="269.9" width="12.2" height="24.65" shape-rendering="crispEdges"/><rect fill="#0d1017" x="366" y="269.9" width="12.2" height="24.65" shape-rendering="crispEdges"/><rect fill="#0d1017" x="378.2" y="269.9" width="329.4" height="24.65" shape-rendering="crispEdges"/><rect fill="#0d1017" x="707.6" y="269.9" width="73.2" height="24.65" shape-rendering="crispEdges"/><rect fill="#0d1017" x="780.8" y="269.9" width="646.6" height="24.65" shape-rendering="crispEdges"/><rect fill="#0d1017" x="1427.4" y="269.9" width="12.2" height="24.65" shape-rendering="crispEdges"/><rect fill="#1c2028" x="0" y="294.3" width="353.8" height="24.65" shape-rendering="crispEdges"/><rect fill="#12161f" x="353.8" y="294.3" width="12.2" height="24.65" shape-rendering="crispEdges"/><rect fill="#0d1017" x="366" y="294.3" width="12.2" height="24.65" shape-rendering="crispEdges"/><rect fill="#0d1017" x="378.2" y="294.3" width="109.8" height="24.65" shape-rendering="crispEdges"/><rect fill="#0d1017" x="488" y="294.3" width="512.4" height="24.65" shape-rendering="crispEdges"/><rect fill="#0d1017" x="1000.4" y="294.3" width="427" height="24.65" shape-rendering="crispEdges"/><rect fill="#0d1017" x="1427.4" y="294.3" width="12.2" height="24.65" shape-rendering="crispEdges"/><rect fill="#1c2028" x="0" y="318.7" width="353.8" height="24.65" shape-rendering="crispEdges"/><rect fill="#12161f" x="353.8" y="318.7" width="12.2" height="24.65" shape-rendering="crispEdges"/><rect fill="#0d1017" x="366" y="318.7" width="12.2" height="24.65" shape-rendering="crispEdges"/><rect fill="#0d1017" x="378.2" y="318.7" width="292.8" height="24.65" shape-rendering="crispEdges"/><rect fill="#0d1017" x="671" y="318.7" width="85.4" height="24.65" shape-rendering="crispEdges"/><rect fill="#0d1017" x="756.4" y="318.7" width="671" height="24.65" shape-rendering="crispEdges"/><rect fill="#0d1017" x="1427.4" y="318.7" width="12.2" height="24.65" shape-rendering="crispEdges"/><rect fill="#1c2028" x="0" y="343.1" width="353.8" height="24.65" shape-rendering="crispEdges"/><rect fill="#12161f" x="353.8" y="343.1" width="12.2" height="24.65" shape-rendering="crispEdges"/><rect fill="#0d1017" x="366" y="343.1" width="12.2" height="24.65" shape-rendering="crispEdges"/><rect fill="#0d1017" x="378.2" y="343.1" width="109.8" height="24.65" shape-rendering="crispEdges"/><rect fill="#0d1017" x="488" y="343.1" width="634.4" height="24.65" shape-rendering="crispEdges"/><rect fill="#0d1017" x="1122.4" y="343.1" width="305" height="24.65" shape-rendering="crispEdges"/><rect fill="#0d1017" x="1427.4" y="343.1" width="12.2" height="24.65" shape-rendering="crispEdges"/><rect fill="#1c2028" x="0" y="367.5" width="353.8" height="24.65" shape-rendering="crispEdges"/><rect fill="#12161f" x="353.8" y="367.5" width="12.2" height="24.65" shape-rendering="crispEdges"/><rect fill="#0d1017" x="366" y="367.5" width="12.2" height="24.65" shape-rendering="crispEdges"/><rect fill="#0d1017" x="378.2" y="367.5" width="183" height="24.65" shape-rendering="crispEdges"/><rect fill="#0d1017" x="561.2" y="367.5" width="73.2" height="24.65" shape-rendering="crispEdges"/><rect fill="#0d1017" x="634.4" y="367.5" width="793" height="24.65" shape-rendering="crispEdges"/><rect fill="#0d1017" x="1427.4" y="367.5" width="12.2" height="24.65" shape-rendering="crispEdges"/><rect fill="#1c2028" x="0" y="391.9" width="353.8" height="24.65" shape-rendering="crispEdges"/><rect fill="#12161f" x="353.8" y="391.9" width="12.2" height="24.65" shape-rendering="crispEdges"/><rect fill="#0d1017" x="366" y="391.9" width="12.2" height="24.65" shape-rendering="crispEdges"/><rect fill="#0d1017" x="378.2" y="391.9" width="1049.2" height="24.65" shape-rendering="crispEdges"/><rect fill="#0d1017" x="1427.4" y="391.9" width="12.2" height="24.65" shape-rendering="crispEdges"/><rect fill="#1c2028" x="0" y="416.3" width="353.8" height="24.65" shape-rendering="crispEdges"/><rect fill="#12161f" x="353.8" y="416.3" width="12.2" height="24.65" shape-rendering="crispEdges"/><rect fill="#0d1017" x="366" y="416.3" width="12.2" height="24.65" shape-rendering="crispEdges"/><rect fill="#0d1017" x="378.2" y="416.3" width="1049.2" height="24.65" shape-rendering="crispEdges"/><rect fill="#0d1017" x="1427.4" y="416.3" width="12.2" height="24.65" shape-rendering="crispEdges"/><rect fill="#1c2028" x="0" y="440.7" width="353.8" height="24.65" shape-rendering="crispEdges"/><rect fill="#12161f" x="353.8" y="440.7" width="12.2" height="24.65" shape-rendering="crispEdges"/><rect fill="#0d1017" x="366" y="440.7" width="12.2" height="24.65" shape-rendering="crispEdges"/><rect fill="#0d1017" x="378.2" y="440.7" width="1049.2" height="24.65" shape-rendering="crispEdges"/><rect fill="#0d1017" x="1427.4" y="440.7" width="12.2" height="24.65" shape-rendering="crispEdges"/><rect fill="#1c2028" x="0" y="465.1" width="353.8" height="24.65" shape-rendering="crispEdges"/><rect fill="#12161f" x="353.8" y="465.1" width="12.2" height="24.65" shape-rendering="crispEdges"/><rect fill="#0d1017" x="366" y="465.1" width="12.2" height="24.65" shape-rendering="crispEdges"/><rect fill="#0d1017" x="378.2" y="465.1" width="1049.2" height="24.65" shape-rendering="crispEdges"/><rect fill="#0d1017" x="1427.4" y="465.1" width="12.2" height="24.65" shape-rendering="crispEdges"/><rect fill="#1c2028" x="0" y="489.5" width="353.8" height="24.65" shape-rendering="crispEdges"/><rect fill="#12161f" x="353.8" y="489.5" width="12.2" height="24.65" shape-rendering="crispEdges"/><rect fill="#0d1017" x="366" y="489.5" width="12.2" height="24.65" shape-rendering="crispEdges"/><rect fill="#0d1017" x="378.2" y="489.5" width="1049.2" height="24.65" shape-rendering="crispEdges"/><rect fill="#0d1017" x="1427.4" y="489.5" width="12.2" height="24.65" shape-rendering="crispEdges"/><rect fill="#1c2028" x="0" y="513.9" width="353.8" height="24.65" shape-rendering="crispEdges"/><rect fill="#12161f" x="353.8" y="513.9" width="12.2" height="24.65" shape-rendering="crispEdges"/><rect fill="#0d1017" x="366" y="513.9" width="12.2" height="24.65" shape-rendering="crispEdges"/><rect fill="#0d1017" x="378.2" y="513.9" width="1049.2" height="24.65" shape-rendering="crispEdges"/><rect fill="#0d1017" x="1427.4" y="513.9" width="12.2" height="24.65" shape-rendering="crispEdges"/><rect fill="#1c2028" x="0" y="538.3" width="353.8" height="24.65" shape-rendering="crispEdges"/><rect fill="#12161f" x="353.8" y="538.3" width="12.2" height="24.65" shape-rendering="crispEdges"/><rect fill="#0d1017" x="366" y="538.3" width="12.2" height="24.65" shape-rendering="crispEdges"/><rect fill="#0d1017" x="378.2" y="538.3" width="1049.2" height="24.65" shape-rendering="crispEdges"/><rect fill="#0d1017" x="1427.4" y="538.3" width="12.2" height="24.65" shape-rendering="crispEdges"/><rect fill="#1c2028" x="0" y="562.7" width="353.8" height="24.65" shape-rendering="crispEdges"/><rect fill="#12161f" x="353.8" y="562.7" width="12.2" height="24.65" shape-rendering="crispEdges"/><rect fill="#0d1017" x="366" y="562.7" width="12.2" height="24.65" shape-rendering="crispEdges"/><rect fill="#0d1017" x="378.2" y="562.7" width="1049.2" height="24.65" shape-rendering="crispEdges"/><rect fill="#0d1017" x="1427.4" y="562.7" width="12.2" height="24.65" shape-rendering="crispEdges"/><rect fill="#1c2028" x="0" y="587.1" width="353.8" height="24.65" shape-rendering="crispEdges"/><rect fill="#12161f" x="353.8" y="587.1" width="12.2" height="24.65" shape-rendering="crispEdges"/><rect fill="#0d1017" x="366" y="587.1" width="12.2" height="24.65" shape-rendering="crispEdges"/><rect fill="#0d1017" x="378.2" y="587.1" width="1049.2" height="24.65" shape-rendering="crispEdges"/><rect fill="#0d1017" x="1427.4" y="587.1" width="12.2" height="24.65" shape-rendering="crispEdges"/><rect fill="#1c2028" x="0" y="611.5" width="353.8" height="24.65" shape-rendering="crispEdges"/><rect fill="#12161f" x="353.8" y="611.5" width="12.2" height="24.65" shape-rendering="crispEdges"/><rect fill="#0d1017" x="366" y="611.5" width="12.2" height="24.65" shape-rendering="crispEdges"/><rect fill="#0d1017" x="378.2" y="611.5" width="1049.2" height="24.65" shape-rendering="crispEdges"/><rect fill="#0d1017" x="1427.4" y="611.5" width="12.2" height="24.65" shape-rendering="crispEdges"/><rect fill="#1c2028" x="0" y="635.9" width="353.8" height="24.65" shape-rendering="crispEdges"/><rect fill="#12161f" x="353.8" y="635.9" width="12.2" height="24.65" shape-rendering="crispEdges"/><rect fill="#0d1017" x="366" y="635.9" width="12.2" height="24.65" shape-rendering="crispEdges"/><rect fill="#0d1017" x="378.2" y="635.9" width="1049.2" height="24.65" shape-rendering="crispEdges"/><rect fill="#0d1017" x="1427.4" y="635.9" width="12.2" height="24.65" shape-rendering="crispEdges"/><rect fill="#1c2028" x="0" y="660.3" width="353.8" height="24.65" shape-rendering="crispEdges"/><rect fill="#12161f" x="353.8" y="660.3" width="12.2" height="24.65" shape-rendering="crispEdges"/><rect fill="#0d1017" x="366" y="660.3" width="12.2" height="24.65" shape-rendering="crispEdges"/><rect fill="#0d1017" x="378.2" y="660.3" width="1049.2" height="24.65" shape-rendering="crispEdges"/><rect fill="#0d1017" x="1427.4" y="660.3" width="12.2" height="24.65" shape-rendering="crispEdges"/><rect fill="#1c2028" x="0" y="684.7" width="353.8" height="24.65" shape-rendering="crispEdges"/><rect fill="#12161f" x="353.8" y="684.7" width="12.2" height="24.65" shape-rendering="crispEdges"/><rect fill="#0d1017" x="366" y="684.7" width="12.2" height="24.65" shape-rendering="crispEdges"/><rect fill="#0d1017" x="378.2" y="684.7" width="1049.2" height="24.65" shape-rendering="crispEdges"/><rect fill="#0d1017" x="1427.4" y="684.7" width="12.2" height="24.65" shape-rendering="crispEdges"/><rect fill="#1c2028" x="0" y="709.1" width="353.8" height="24.65" shape-rendering="crispEdges"/><rect fill="#12161f" x="353.8" y="709.1" width="12.2" height="24.65" shape-rendering="crispEdges"/><rect fill="#0d1017" x="366" y="709.1" width="12.2" height="24.65" shape-rendering="crispEdges"/><rect fill="#0d1017" x="378.2" y="709.1" width="1049.2" height="24.65" shape-rendering="crispEdges"/><rect fill="#0d1017" x="1427.4" y="709.1" width="12.2" height="24.65" shape-rendering="crispEdges"/><rect fill="#1c2028" x="0" y="733.5" width="353.8" height="24.65" shape-rendering="crispEdges"/><rect fill="#12161f" x="353.8" y="733.5" width="12.2" height="24.65" shape-rendering="crispEdges"/><rect fill="#0d1017" x="366" y="733.5" width="12.2" height="24.65" shape-rendering="crispEdges"/><rect fill="#0d1017" x="378.2" y="733.5" width="1049.2" height="24.65" shape-rendering="crispEdges"/><rect fill="#0d1017" x="1427.4" y="733.5" width="12.2" height="24.65" shape-rendering="crispEdges"/><rect fill="#1c2028" x="0" y="757.9" width="353.8" height="24.65" shape-rendering="crispEdges"/><rect fill="#12161f" x="353.8" y="757.9" width="12.2" height="24.65" shape-rendering="crispEdges"/><rect fill="#0d1017" x="366" y="757.9" width="12.2" height="24.65" shape-rendering="crispEdges"/><rect fill="#0d1017" x="378.2" y="757.9" width="1049.2" height="24.65" shape-rendering="crispEdges"/><rect fill="#0d1017" x="1427.4" y="757.9" width="12.2" height="24.65" shape-rendering="crispEdges"/><rect fill="#1c2028" x="0" y="782.3" width="353.8" height="24.65" shape-rendering="crispEdges"/><rect fill="#12161f" x="353.8" y="782.3" width="12.2" height="24.65" shape-rendering="crispEdges"/><rect fill="#0d1017" x="366" y="782.3" width="12.2" height="24.65" shape-rendering="crispEdges"/><rect fill="#0d1017" x="378.2" y="782.3" width="1049.2" height="24.65" shape-rendering="crispEdges"/><rect fill="#0d1017" x="1427.4" y="782.3" width="12.2" height="24.65" shape-rendering="crispEdges"/><rect fill="#171c26" x="0" y="806.7" width="36.6" height="24.65" shape-rendering="crispEdges"/><rect fill="#171c26" x="36.6" y="806.7" width="73.2" height="24.65" shape-rendering="crispEdges"/><rect fill="#171c26" x="109.8" y="806.7" width="36.6" height="24.65" shape-rendering="crispEdges"/><rect fill="#171c26" x="146.4" y="806.7" width="97.6" height="24.65" shape-rendering="crispEdges"/><rect fill="#171c26" x="244" y="806.7" width="36.6" height="24.65" shape-rendering="crispEdges"/><rect fill="#171c26" x="280.6" y="806.7" width="73.2" height="24.65" shape-rendering="crispEdges"/><rect fill="#171c26" x="353.8" y="806.7" width="36.6" height="24.65" shape-rendering="crispEdges"/><rect fill="#171c26" x="390.4" y="806.7" width="122" height="24.65" shape-rendering="crispEdges"/><rect fill="#171c26" x="512.4" y="806.7" width="36.6" height="24.65" shape-rendering="crispEdges"/><rect fill="#171c26" x="549" y="806.7" width="85.4" height="24.65" shape-rendering="crispEdges"/><rect fill="#171c26" x="634.4" y="806.7" width="36.6" height="24.65" shape-rendering="crispEdges"/><rect fill="#171c26" x="671" y="806.7" width="134.2" height="24.65" shape-rendering="crispEdges"/><rect fill="#171c26" x="805.2" y="806.7" width="36.6" height="24.65" shape-rendering="crispEdges"/><rect fill="#171c26" x="841.8" y="806.7" width="85.4" height="24.65" shape-rendering="crispEdges"/><rect fill="#171c26" x="927.2" y="806.7" width="36.6" height="24.65" shape-rendering="crispEdges"/><rect fill="#171c26" x="963.8" y="806.7" width="61" height="24.65" shape-rendering="crispEdges"/><rect fill="#171c26" x="1024.8" y="806.7" width="268.4" height="24.65" shape-rendering="crispEdges"/><rect fill="#171c26" x="1293.2" y="806.7" width="12.2" height="24.65" shape-rendering="crispEdges"/><rect fill="#171c26" x="1305.4" y="806.7" width="24.4" height="24.65" shape-rendering="crispEdges"/><rect fill="#171c26" x="1329.8" y="806.7" width="97.6" height="24.65" shape-rendering="crispEdges"/><rect fill="#171c26" x="1427.4" y="806.7" width="12.2" height="24.65" shape-rendering="crispEdges"/>
    <g class="terminal-2842488015-matrix">
    <text class="terminal-2842488015-r2" x="12.2" y="20" textLength="109.8" clip-path="url(#terminal-2842488015-line-0)">&#160;&#160;SERVERS</text><text class="terminal-2842488015-r3" x="353.8" y="20" textLength="12.2" clip-path="url(#terminal-2842488015-line-0)">│</text><text class="terminal-2842488015-r4" x="378.2" y="20" textLength="183" clip-path="url(#terminal-2842488015-line-0)">DCTN-0702103117</text><text class="terminal-2842488015-r5" x="585.6" y="20" textLength="48.8" clip-path="url(#terminal-2842488015-line-0)">dctn</text><text class="terminal-2842488015-r1" x="1439.6" y="20" textLength="12.2" clip-path="url(#terminal-2842488015-line-0)">
</text><text class="terminal-2842488015-r7" x="12.2" y="44.4" textLength="24.4" clip-path="url(#terminal-2842488015-line-1)">★&#160;</text><text class="terminal-2842488015-r6" x="36.6" y="44.4" textLength="183" clip-path="url(#terminal-2842488015-line-1)">Recent&#160;sessions</text><text class="terminal-2842488015-r3" x="353.8" y="44.4" textLength="12.2" clip-path="url(#terminal-2842488015-line-1)">│</text><text class="terminal-2842488015-r8" x="378.2" y="44.4" textLength="768.6" clip-path="url(#terminal-2842488015-line-1)">3&#160;tmux&#160;·&#160;3&#160;claude&#160;·&#160;1&#160;codex&#160;&#160;&#160;—&#160;&#160;Enter&#160;open&#160;·&#160;s&#160;split&#160;·&#160;x&#160;close</text><text class="terminal-2842488015-r1" x="1439.6" y="44.4" textLength="12.2" clip-path="url(#terminal-2842488015-line-1)">
</text><text class="terminal-2842488015-r10" x="12.2" y="68.8" textLength="24.4" clip-path="url(#terminal-2842488015-line-2)">●&#160;</text><text class="terminal-2842488015-r9" x="36.6" y="68.8" textLength="183" clip-path="url(#terminal-2842488015-line-2)">DCTN-0702103117</text><text class="terminal-2842488015-r11" x="219.6" y="68.8" textLength="36.6" clip-path="url(#terminal-2842488015-line-2)">&#160;&#160;7</text><text class="terminal-2842488015-r3" x="353.8" y="68.8" textLength="12.2" clip-path="url(#terminal-2842488015-line-2)">│</text><text class="terminal-2842488015-r10" x="378.2" y="68.8" textLength="85.4" clip-path="url(#terminal-2842488015-line-2)">▣&#160;tmux&#160;</text><text class="terminal-2842488015-r4" x="463.6" y="68.8" textLength="97.6" clip-path="url(#terminal-2842488015-line-2)">download</text><text class="terminal-2842488015-r1" x="1439.6" y="68.8" textLength="12.2" clip-path="url(#terminal-2842488015-line-2)">
</text><text class="terminal-2842488015-r12" x="12.2" y="93.2" textLength="24.4" clip-path="url(#terminal-2842488015-line-3)">●&#160;</text><text class="terminal-2842488015-r6" x="36.6" y="93.2" textLength="73.2" clip-path="url(#terminal-2842488015-line-3)">Hinton</text><text class="terminal-2842488015-r13" x="109.8" y="93.2" textLength="36.6" clip-path="url(#terminal-2842488015-line-3)">&#160;&#160;1</text><text class="terminal-2842488015-r3" x="353.8" y="93.2" textLength="12.2" clip-path="url(#terminal-2842488015-line-3)">│</text><text class="terminal-2842488015-r14" x="378.2" y="93.2" textLength="183" clip-path="url(#terminal-2842488015-line-3)">&#160;&#160;&#160;1&#160;windows&#160;·&#160;</text><text class="terminal-2842488015-r12" x="561.2" y="93.2" textLength="97.6" clip-path="url(#terminal-2842488015-line-3)">attached</text><text class="terminal-2842488015-r1" x="1439.6" y="93.2" textLength="12.2" clip-path="url(#terminal-2842488015-line-3)">
</text><text class="terminal-2842488015-r12" x="12.2" y="117.6" textLength="24.4" clip-path="url(#terminal-2842488015-line-4)">●&#160;</text><text class="terminal-2842488015-r6" x="36.6" y="117.6" textLength="61" clip-path="url(#terminal-2842488015-line-4)">Lecun</text><text class="terminal-2842488015-r13" x="97.6" y="117.6" textLength="36.6" clip-path="url(#terminal-2842488015-line-4)">&#160;&#160;2</text><text class="terminal-2842488015-r3" x="353.8" y="117.6" textLength="12.2" clip-path="url(#terminal-2842488015-line-4)">│</text><text class="terminal-2842488015-r10" x="378.2" y="117.6" textLength="85.4" clip-path="url(#terminal-2842488015-line-4)">▣&#160;tmux&#160;</text><text class="terminal-2842488015-r4" x="463.6" y="117.6" textLength="195.2" clip-path="url(#terminal-2842488015-line-4)">rogs_overlap_v2i</text><text class="terminal-2842488015-r1" x="1439.6" y="117.6" textLength="12.2" clip-path="url(#terminal-2842488015-line-4)">
</text><text class="terminal-2842488015-r15" x="12.2" y="142" textLength="24.4" clip-path="url(#terminal-2842488015-line-5)">✗&#160;</text><text class="terminal-2842488015-r16" x="36.6" y="142" textLength="97.6" clip-path="url(#terminal-2842488015-line-5)">Poseidon</text><text class="terminal-2842488015-r3" x="353.8" y="142" textLength="12.2" clip-path="url(#terminal-2842488015-line-5)">│</text><text class="terminal-2842488015-r17" x="378.2" y="142" textLength="183" clip-path="url(#terminal-2842488015-line-5)">&#160;&#160;&#160;1&#160;windows&#160;·&#160;</text><text class="terminal-2842488015-r17" x="561.2" y="142" textLength="97.6" clip-path="url(#terminal-2842488015-line-5)">detached</text><text class="terminal-2842488015-r1" x="1439.6" y="142" textLength="12.2" clip-path="url(#terminal-2842488015-line-5)">
</text><text class="terminal-2842488015-r15" x="12.2" y="166.4" textLength="24.4" clip-path="url(#terminal-2842488015-line-6)">✗&#160;</text><text class="terminal-2842488015-r16" x="36.6" y="166.4" textLength="97.6" clip-path="url(#terminal-2842488015-line-6)">server22</text><text class="terminal-2842488015-r3" x="353.8" y="166.4" textLength="12.2" clip-path="url(#terminal-2842488015-line-6)">│</text><text class="terminal-2842488015-r10" x="378.2" y="166.4" textLength="85.4" clip-path="url(#terminal-2842488015-line-6)">▣&#160;tmux&#160;</text><text class="terminal-2842488015-r4" x="463.6" y="166.4" textLength="73.2" clip-path="url(#terminal-2842488015-line-6)">shchoi</text><text class="terminal-2842488015-r1" x="1439.6" y="166.4" textLength="12.2" clip-path="url(#terminal-2842488015-line-6)">
</text><text class="terminal-2842488015-r3" x="353.8" y="190.8" textLength="12.2" clip-path="url(#terminal-2842488015-line-7)">│</text><text class="terminal-2842488015-r17" x="378.2" y="190.8" textLength="183" clip-path="url(#terminal-2842488015-line-7)">&#160;&#160;&#160;2&#160;windows&#160;·&#160;</text><text class="terminal-2842488015-r12" x="561.2" y="190.8" textLength="97.6" clip-path="url(#terminal-2842488015-line-7)">attached</text><text class="terminal-2842488015-r1" x="1439.6" y="190.8" textLength="12.2" clip-path="url(#terminal-2842488015-line-7)">
</text><text class="terminal-2842488015-r3" x="353.8" y="215.2" textLength="12.2" clip-path="url(#terminal-2842488015-line-8)">│</text><text class="terminal-2842488015-r7" x="378.2" y="215.2" textLength="109.8" clip-path="url(#terminal-2842488015-line-8)">◉&#160;claude&#160;</text><text class="terminal-2842488015-r6" x="488" y="215.2" textLength="329.4" clip-path="url(#terminal-2842488015-line-8)">codebook&#160;이&#160;뭐하는건지&#160;직관적으로&#160;설명해줘</text><text class="terminal-2842488015-r1" x="1439.6" y="215.2" textLength="12.2" clip-path="url(#terminal-2842488015-line-8)">
</text><text class="terminal-2842488015-r3" x="353.8" y="239.6" textLength="12.2" clip-path="url(#terminal-2842488015-line-9)">│</text><text class="terminal-2842488015-r18" x="378.2" y="239.6" textLength="378.2" clip-path="url(#terminal-2842488015-line-9)">&#160;&#160;&#160;/home/x/camosplat_refinement</text><text class="terminal-2842488015-r17" x="756.4" y="239.6" textLength="85.4" clip-path="url(#terminal-2842488015-line-9)">&#160;&#160;·&#160;30s</text><text class="terminal-2842488015-r1" x="1439.6" y="239.6" textLength="12.2" clip-path="url(#terminal-2842488015-line-9)">
</text><text class="terminal-2842488015-r3" x="353.8" y="264" textLength="12.2" clip-path="url(#terminal-2842488015-line-10)">│</text><text class="terminal-2842488015-r19" x="378.2" y="264" textLength="97.6" clip-path="url(#terminal-2842488015-line-10)">◉&#160;codex&#160;</text><text class="terminal-2842488015-r6" x="475.8" y="264" textLength="366" clip-path="url(#terminal-2842488015-line-10)">act&#160;as&#160;final&#160;ULW&#160;gate&#160;reviewer</text><text class="terminal-2842488015-r1" x="1439.6" y="264" textLength="12.2" clip-path="url(#terminal-2842488015-line-10)">
</text><text class="terminal-2842488015-r3" x="353.8" y="288.4" textLength="12.2" clip-path="url(#terminal-2842488015-line-11)">│</text><text class="terminal-2842488015-r20" x="378.2" y="288.4" textLength="329.4" clip-path="url(#terminal-2842488015-line-11)">&#160;&#160;&#160;/home/x/PseudoMapTrainer</text><text class="terminal-2842488015-r17" x="707.6" y="288.4" textLength="73.2" clip-path="url(#terminal-2842488015-line-11)">&#160;&#160;·&#160;5m</text><text class="terminal-2842488015-r1" x="1439.6" y="288.4" textLength="12.2" clip-path="url(#terminal-2842488015-line-11)">
</text><text class="terminal-2842488015-r3" x="353.8" y="312.8" textLength="12.2" clip-path="url(#terminal-2842488015-line-12)">│</text><text class="terminal-2842488015-r7" x="378.2" y="312.8" textLength="109.8" clip-path="url(#terminal-2842488015-line-12)">◉&#160;claude&#160;</text><text class="terminal-2842488015-r6" x="488" y="312.8" textLength="414.8" clip-path="url(#terminal-2842488015-line-12)">bevfeature&#160;distillation&#160;대화&#160;내용&#160;가져와라</text><text class="terminal-2842488015-r1" x="1439.6" y="312.8" textLength="12.2" clip-path="url(#terminal-2842488015-line-12)">
</text><text class="terminal-2842488015-r3" x="353.8" y="337.2" textLength="12.2" clip-path="url(#terminal-2842488015-line-13)">│</text><text class="terminal-2842488015-r18" x="378.2" y="337.2" textLength="292.8" clip-path="url(#terminal-2842488015-line-13)">&#160;&#160;&#160;/home/x/satmaptracker</text><text class="terminal-2842488015-r17" x="671" y="337.2" textLength="85.4" clip-path="url(#terminal-2842488015-line-13)">&#160;&#160;·&#160;18m</text><text class="terminal-2842488015-r1" x="1439.6" y="337.2" textLength="12.2" clip-path="url(#terminal-2842488015-line-13)">
</text><text class="terminal-2842488015-r3" x="353.8" y="361.6" textLength="12.2" clip-path="url(#terminal-2842488015-line-14)">│</text><text class="terminal-2842488015-r7" x="378.2" y="361.6" textLength="109.8" clip-path="url(#terminal-2842488015-line-14)">◉&#160;claude&#160;</text><text class="terminal-2842488015-r6" x="488" y="361.6" textLength="451.4" clip-path="url(#terminal-2842488015-line-14)">nvidia&#160;데이터셋&#160;다운받고&#160;있음.&#160;hd&#160;map&#160;gt가&#160;없는&#160;상태</text><text class="terminal-2842488015-r1" x="1439.6" y="361.6" textLength="12.2" clip-path="url(#terminal-2842488015-line-14)">
</text><text class="terminal-2842488015-r3" x="353.8" y="386" textLength="12.2" clip-path="url(#terminal-2842488015-line-15)">│</text><text class="terminal-2842488015-r18" x="378.2" y="386" textLength="183" clip-path="url(#terminal-2842488015-line-15)">&#160;&#160;&#160;/home/x/sung</text><text class="terminal-2842488015-r17" x="561.2" y="386" textLength="73.2" clip-path="url(#terminal-2842488015-line-15)">&#160;&#160;·&#160;2h</text><text class="terminal-2842488015-r1" x="1439.6" y="386" textLength="12.2" clip-path="url(#terminal-2842488015-line-15)">
</text><text class="terminal-2842488015-r3" x="353.8" y="410.4" textLength="12.2" clip-path="url(#terminal-2842488015-line-16)">│</text><text class="terminal-2842488015-r1" x="1439.6" y="410.4" textLength="12.2" clip-path="url(#terminal-2842488015-line-16)">
</text><text class="terminal-2842488015-r3" x="353.8" y="434.8" textLength="12.2" clip-path="url(#terminal-2842488015-line-17)">│</text><text class="terminal-2842488015-r1" x="1439.6" y="434.8" textLength="12.2" clip-path="url(#terminal-2842488015-line-17)">
</text><text class="terminal-2842488015-r3" x="353.8" y="459.2" textLength="12.2" clip-path="url(#terminal-2842488015-line-18)">│</text><text class="terminal-2842488015-r1" x="1439.6" y="459.2" textLength="12.2" clip-path="url(#terminal-2842488015-line-18)">
</text><text class="terminal-2842488015-r3" x="353.8" y="483.6" textLength="12.2" clip-path="url(#terminal-2842488015-line-19)">│</text><text class="terminal-2842488015-r1" x="1439.6" y="483.6" textLength="12.2" clip-path="url(#terminal-2842488015-line-19)">
</text><text class="terminal-2842488015-r3" x="353.8" y="508" textLength="12.2" clip-path="url(#terminal-2842488015-line-20)">│</text><text class="terminal-2842488015-r1" x="1439.6" y="508" textLength="12.2" clip-path="url(#terminal-2842488015-line-20)">
</text><text class="terminal-2842488015-r3" x="353.8" y="532.4" textLength="12.2" clip-path="url(#terminal-2842488015-line-21)">│</text><text class="terminal-2842488015-r1" x="1439.6" y="532.4" textLength="12.2" clip-path="url(#terminal-2842488015-line-21)">
</text><text class="terminal-2842488015-r3" x="353.8" y="556.8" textLength="12.2" clip-path="url(#terminal-2842488015-line-22)">│</text><text class="terminal-2842488015-r1" x="1439.6" y="556.8" textLength="12.2" clip-path="url(#terminal-2842488015-line-22)">
</text><text class="terminal-2842488015-r3" x="353.8" y="581.2" textLength="12.2" clip-path="url(#terminal-2842488015-line-23)">│</text><text class="terminal-2842488015-r1" x="1439.6" y="581.2" textLength="12.2" clip-path="url(#terminal-2842488015-line-23)">
</text><text class="terminal-2842488015-r3" x="353.8" y="605.6" textLength="12.2" clip-path="url(#terminal-2842488015-line-24)">│</text><text class="terminal-2842488015-r1" x="1439.6" y="605.6" textLength="12.2" clip-path="url(#terminal-2842488015-line-24)">
</text><text class="terminal-2842488015-r3" x="353.8" y="630" textLength="12.2" clip-path="url(#terminal-2842488015-line-25)">│</text><text class="terminal-2842488015-r1" x="1439.6" y="630" textLength="12.2" clip-path="url(#terminal-2842488015-line-25)">
</text><text class="terminal-2842488015-r3" x="353.8" y="654.4" textLength="12.2" clip-path="url(#terminal-2842488015-line-26)">│</text><text class="terminal-2842488015-r1" x="1439.6" y="654.4" textLength="12.2" clip-path="url(#terminal-2842488015-line-26)">
</text><text class="terminal-2842488015-r3" x="353.8" y="678.8" textLength="12.2" clip-path="url(#terminal-2842488015-line-27)">│</text><text class="terminal-2842488015-r1" x="1439.6" y="678.8" textLength="12.2" clip-path="url(#terminal-2842488015-line-27)">
</text><text class="terminal-2842488015-r3" x="353.8" y="703.2" textLength="12.2" clip-path="url(#terminal-2842488015-line-28)">│</text><text class="terminal-2842488015-r1" x="1439.6" y="703.2" textLength="12.2" clip-path="url(#terminal-2842488015-line-28)">
</text><text class="terminal-2842488015-r3" x="353.8" y="727.6" textLength="12.2" clip-path="url(#terminal-2842488015-line-29)">│</text><text class="terminal-2842488015-r1" x="1439.6" y="727.6" textLength="12.2" clip-path="url(#terminal-2842488015-line-29)">
</text><text class="terminal-2842488015-r3" x="353.8" y="752" textLength="12.2" clip-path="url(#terminal-2842488015-line-30)">│</text><text class="terminal-2842488015-r1" x="1439.6" y="752" textLength="12.2" clip-path="url(#terminal-2842488015-line-30)">
</text><text class="terminal-2842488015-r3" x="353.8" y="776.4" textLength="12.2" clip-path="url(#terminal-2842488015-line-31)">│</text><text class="terminal-2842488015-r1" x="1439.6" y="776.4" textLength="12.2" clip-path="url(#terminal-2842488015-line-31)">
</text><text class="terminal-2842488015-r3" x="353.8" y="800.8" textLength="12.2" clip-path="url(#terminal-2842488015-line-32)">│</text><text class="terminal-2842488015-r1" x="1439.6" y="800.8" textLength="12.2" clip-path="url(#terminal-2842488015-line-32)">
</text><text class="terminal-2842488015-r19" x="0" y="825.2" textLength="36.6" clip-path="url(#terminal-2842488015-line-33)">&#160;s&#160;</text><text class="terminal-2842488015-r21" x="36.6" y="825.2" textLength="73.2" clip-path="url(#terminal-2842488015-line-33)">split&#160;</text><text class="terminal-2842488015-r19" x="109.8" y="825.2" textLength="36.6" clip-path="url(#terminal-2842488015-line-33)">&#160;v&#160;</text><text class="terminal-2842488015-r21" x="146.4" y="825.2" textLength="97.6" clip-path="url(#terminal-2842488015-line-33)">split&#160;↕&#160;</text><text class="terminal-2842488015-r19" x="244" y="825.2" textLength="36.6" clip-path="url(#terminal-2842488015-line-33)">&#160;x&#160;</text><text class="terminal-2842488015-r21" x="280.6" y="825.2" textLength="73.2" clip-path="url(#terminal-2842488015-line-33)">close&#160;</text><text class="terminal-2842488015-r19" x="353.8" y="825.2" textLength="36.6" clip-path="url(#terminal-2842488015-line-33)">&#160;n&#160;</text><text class="terminal-2842488015-r21" x="390.4" y="825.2" textLength="122" clip-path="url(#terminal-2842488015-line-33)">new&#160;shell&#160;</text><text class="terminal-2842488015-r19" x="512.4" y="825.2" textLength="36.6" clip-path="url(#terminal-2842488015-line-33)">&#160;r&#160;</text><text class="terminal-2842488015-r21" x="549" y="825.2" textLength="85.4" clip-path="url(#terminal-2842488015-line-33)">rescan&#160;</text><text class="terminal-2842488015-r19" x="634.4" y="825.2" textLength="36.6" clip-path="url(#terminal-2842488015-line-33)">&#160;d&#160;</text><text class="terminal-2842488015-r21" x="671" y="825.2" textLength="134.2" clip-path="url(#terminal-2842488015-line-33)">light/dark&#160;</text><text class="terminal-2842488015-r19" x="805.2" y="825.2" textLength="36.6" clip-path="url(#terminal-2842488015-line-33)">&#160;/&#160;</text><text class="terminal-2842488015-r21" x="841.8" y="825.2" textLength="85.4" clip-path="url(#terminal-2842488015-line-33)">filter&#160;</text><text class="terminal-2842488015-r19" x="927.2" y="825.2" textLength="36.6" clip-path="url(#terminal-2842488015-line-33)">&#160;q&#160;</text><text class="terminal-2842488015-r21" x="963.8" y="825.2" textLength="61" clip-path="url(#terminal-2842488015-line-33)">quit&#160;</text><text class="terminal-2842488015-r22" x="1293.2" y="825.2" textLength="12.2" clip-path="url(#terminal-2842488015-line-33)">▏</text><text class="terminal-2842488015-r19" x="1305.4" y="825.2" textLength="24.4" clip-path="url(#terminal-2842488015-line-33)">^p</text><text class="terminal-2842488015-r21" x="1329.8" y="825.2" textLength="97.6" clip-path="url(#terminal-2842488015-line-33)">&#160;palette</text>
    </g>
    </g>
</svg>
